<svg xmlns="http://www.w3.org/2000/svg" xmlns:xlink="http://www.w3.org/1999/xlink" viewBox="0 0 411 60.44"><defs><style>.cls-1{fill:url(#Degradado_sin_nombre_23);}.cls-2{fill:url(#Degradado_sin_nombre_23-2);}.cls-3{fill:none;}.cls-4{fill:#fff;}.cls-5{clip-path:url(#clip-path);}.cls-6{mask:url(#mask);}.cls-7{fill:url(#Degradado_sin_nombre_22);}.cls-8{mask:url(#mask-2);}.cls-9{fill:url(#Degradado_sin_nombre_22-2);}</style><linearGradient id="Degradado_sin_nombre_23" x1="2028.41" y1="3842.85" x2="2029.41" y2="3842.85" gradientTransform="translate(-36903.46 -264876.09) scale(18.39 68.94)" gradientUnits="userSpaceOnUse"><stop offset="0" stop-color="#fff"/><stop offset="0.22" stop-color="#c2c2c2"/><stop offset="0.6" stop-color="#5b5b5b"/><stop offset="0.87" stop-color="#191919"/><stop offset="1"/></linearGradient><linearGradient id="Degradado_sin_nombre_23-2" x1="2277.13" y1="3841.67" x2="2278.13" y2="3841.67" gradientTransform="matrix(-77.87, 0, 0, 77.87, 177406.36, -299118.39)" xlink:href="#Degradado_sin_nombre_23"/><clipPath id="clip-path"><rect class="cls-3" x="392.61" y="41.47" width="18.39" height="10.82"/></clipPath><mask id="mask" x="392.61" y="41.47" width="18.39" height="10.82" maskUnits="userSpaceOnUse"><rect class="cls-1" x="392.61" y="41.47" width="18.39" height="10.82"/></mask><linearGradient id="Degradado_sin_nombre_22" x1="2028.41" y1="3842.85" x2="2029.41" y2="3842.85" gradientTransform="translate(-36903.46 -264876.12) scale(18.39 68.94)" gradientUnits="userSpaceOnUse"><stop offset="0" stop-color="#e0bd37"/><stop offset="1" stop-color="#e0bd37"/></linearGradient><mask id="mask-2" x="0" y="41.47" width="77.87" height="10.82" maskUnits="userSpaceOnUse"><rect class="cls-2" y="41.47" width="77.87" height="10.82"/></mask><linearGradient id="Degradado_sin_nombre_22-2" x1="2277.13" y1="3841.67" x2="2278.13" y2="3841.67" gradientTransform="matrix(-77.87, 0, 0, 77.87, 177406.36, -299118.39)" xlink:href="#Degradado_sin_nombre_22"/></defs><g id="Capa_2" data-name="Capa 2"><g id="Capa_5" data-name="Capa 5"><path class="cls-4" d="M164.91,21.37l.1-.75.14-.13a5.94,5.94,0,0,0,1.34-.42.57.57,0,0,0,.21-.2,3.64,3.64,0,0,0,.23-.73q.15-.62,1-5.69l1.1-6.38a34.67,34.67,0,0,0,.53-4,.67.67,0,0,0-.18-.52.76.76,0,0,0-.44-.21l-2-.13-.1-.11.11-.78.13-.12q2.28.1,6.12.1l8.7-.1.15.17q0,.35-.42,2.43c-.14.75-.24,1.44-.32,2.09l-.12.12h-.75l-.11-.12c0-1.11,0-1.78,0-2a1.1,1.1,0,0,0-.1-.58.91.91,0,0,0-.5-.3,7,7,0,0,0-1.52-.26,20.27,20.27,0,0,0-2.13-.12,16.74,16.74,0,0,0-2.6.17l-.89,4.47c-.13.66-.31,1.64-.53,2.93,2.08.05,3.4.07,4,.07.86,0,1.78,0,2.77-.07l.09.17-.37,1.26-.17.13-5.32-.13-1.18,0-.9,5.12c-.27,1.48-.43,2.55-.49,3.22h2.38c1.2,0,2.25,0,3.14-.09a8.81,8.81,0,0,0,1.82-.23,1.33,1.33,0,0,0,.72-.42,5.32,5.32,0,0,0,.55-1.54c0-.21.18-.62.38-1.23l.12-.11h.84l.1.11-1,4.88-.16.13c-1.53,0-2.57,0-3.13,0L170,21.39c-1.45,0-3.13,0-5,.09Zm18.78-4.2h.65l.12.13,0,1.27a4.59,4.59,0,0,0,1.55,1.19,4.39,4.39,0,0,0,2.09.51,4.17,4.17,0,0,0,1.41-.23,1.73,1.73,0,0,0,.95-.81,2.43,2.43,0,0,0,.32-1.17,1.66,1.66,0,0,0-.27-.95,1.74,1.74,0,0,0-.71-.63,5.54,5.54,0,0,0-1.43-.46c-1-.22-1.64-.38-2-.51a3,3,0,0,1-1.06-.54,2.85,2.85,0,0,1-.77-1,3.28,3.28,0,0,1-.31-1.43,3.8,3.8,0,0,1,.29-1.49,3.63,3.63,0,0,1,.83-1.21,11.09,11.09,0,0,1,1.74-1.25,9.25,9.25,0,0,1,1.84-1,5.21,5.21,0,0,1,1.58-.21,7.15,7.15,0,0,1,3.56.91c-.19.92-.36,2-.5,3.36l-.13.1h-.63l-.13-.1-.15-1.33a4.69,4.69,0,0,0-1.54-1A4.79,4.79,0,0,0,189.28,9a2.46,2.46,0,0,0-1.67.58,1.88,1.88,0,0,0-.67,1.5,1.58,1.58,0,0,0,.67,1.42,8.32,8.32,0,0,0,2.61.81,8.55,8.55,0,0,1,2,.56,2.53,2.53,0,0,1,1.08,1,3.11,3.11,0,0,1,.43,1.66,3.7,3.7,0,0,1-.41,1.75,6.36,6.36,0,0,1-1.69,1.75,10,10,0,0,1-2.23,1.4,6.52,6.52,0,0,1-2.49.4,9.13,9.13,0,0,1-3.84-.8L183,21a14.92,14.92,0,0,0,.34-1.78c.13-.86.2-1.48.22-1.87Zm23.12.94h0l.32.6,0,.18a23.1,23.1,0,0,1-4,2.45,7.26,7.26,0,0,1-3,.71,3.93,3.93,0,0,1-2-.54A3,3,0,0,1,196.76,20a5,5,0,0,1-.4-2,13.4,13.4,0,0,1,.3-2.73,12.73,12.73,0,0,1,.74-2.51,7.24,7.24,0,0,1,.87-1.6,4.91,4.91,0,0,1,1-.94c.38-.28,1.05-.71,2-1.31.7-.45,1.17-.74,1.43-.87a4.78,4.78,0,0,1,1-.35A5.56,5.56,0,0,1,205,7.57a8,8,0,0,1,3,.7l0,.16a11.88,11.88,0,0,0-.52,1.81,20.66,20.66,0,0,0-.42,2.09l-.15.14h-.73l-.1-.14a10.48,10.48,0,0,0,.11-1.41c0-.09,0-.23,0-.43a3.92,3.92,0,0,0-2.63-1.07,3,3,0,0,0-1.61.37,2.86,2.86,0,0,0-1,1.13,13.3,13.3,0,0,0-.88,2.73,16.08,16.08,0,0,0-.48,3.57,3.36,3.36,0,0,0,.59,2.06,1.89,1.89,0,0,0,1.62.79,5.57,5.57,0,0,0,1.88-.37,15.87,15.87,0,0,0,2.85-1.59Zm2.4-7h0L209,10.6l0-.2a39.55,39.55,0,0,1,3.35-2.24,4.64,4.64,0,0,1,2.13-.76c.62,0,.93.38.93,1.13a7.24,7.24,0,0,1-.17,1.36c-.11.54-.32,1.42-.63,2.62l-1.21,4.8a8.07,8.07,0,0,0-.21,1.42c0,.4.17.6.5.6a2,2,0,0,0,.93-.4,10.85,10.85,0,0,0,1.84-2,15.75,15.75,0,0,0,1.72-2.82,19.65,19.65,0,0,0,1.36-3.8,14.3,14.3,0,0,0,.39-2.26,13.14,13.14,0,0,0,3.12-.57l.24.26q-.87,2.81-1.76,6.4a25.45,25.45,0,0,0-.9,4.68c0,.35.14.52.42.52a1,1,0,0,0,.51-.16,6.61,6.61,0,0,0,.67-.47l.75-.52h.17l.31.55,0,.19a36.63,36.63,0,0,1-3.72,2.6,3.06,3.06,0,0,1-1.37.4.83.83,0,0,1-.69-.32,1.44,1.44,0,0,1-.24-.88,19,19,0,0,1,.73-3.66l.56-2.17a18.37,18.37,0,0,1-3.73,4.9q-2.35,2.24-3.78,2.23a1.28,1.28,0,0,1-1-.43,1.89,1.89,0,0,1-.38-1.27,6.4,6.4,0,0,1,.12-1.19c.08-.42.29-1.27.64-2.56a31.93,31.93,0,0,0,1.23-5.86c0-.41-.14-.61-.42-.61a1.09,1.09,0,0,0-.41.11c-.15.06-.67.37-1.55.92Zm26.4,7h0l.32.58,0,.18a24.28,24.28,0,0,1-4.07,2.45,7,7,0,0,1-2.73.67,4.41,4.41,0,0,1-2-.45,2.68,2.68,0,0,1-1.31-1.28,4.15,4.15,0,0,1-.39-1.77,17.76,17.76,0,0,1,.59-4A9.74,9.74,0,0,1,227.52,11a10.08,10.08,0,0,1,3-2.34A7.39,7.39,0,0,1,234,7.44a3.09,3.09,0,0,1,2,.64,2.18,2.18,0,0,1,.78,1.82,4.29,4.29,0,0,1-.87,2.64,6.44,6.44,0,0,1-2.89,2,19.65,19.65,0,0,1-4.16,1.16,13.9,13.9,0,0,0-.16,1.92,2.29,2.29,0,0,0,.67,1.91,2.35,2.35,0,0,0,1.48.51,4.84,4.84,0,0,0,1.35-.22,6.35,6.35,0,0,0,1.26-.5c.34-.19,1-.58,1.94-1.2ZM229,14.91h0a6.67,6.67,0,0,0,4-2,4.39,4.39,0,0,0,1-2.58,1.39,1.39,0,0,0-.4-1.07,1.42,1.42,0,0,0-1-.37,2.46,2.46,0,0,0-2,1.23A14.84,14.84,0,0,0,229,14.91m16.73,3.32h0l.33.56L246,19a37.32,37.32,0,0,1-4,2.64,3.52,3.52,0,0,1-1.38.4.93.93,0,0,1-.88-.5,2.43,2.43,0,0,1-.25-1.14,31.15,31.15,0,0,1,.85-5.22l2-9.09c.12-.49.24-1.08.35-1.78A11.6,11.6,0,0,0,242.87,3a.72.72,0,0,0-.18-.51.92.92,0,0,0-.67-.21l-1.45,0-.11-.13.08-.61.14-.14A27.14,27.14,0,0,0,246.51,0l.35.32Q245.65,5.39,244.48,11l-1.38,6.48a7.3,7.3,0,0,0-.18,1.4c0,.41.13.62.38.62a6,6,0,0,0,2.3-1.27Zm16.43.11h0l.31.56-.06.19a41.19,41.19,0,0,1-3.55,2.43,3.57,3.57,0,0,1-1.61.53.81.81,0,0,1-.72-.39,1.64,1.64,0,0,1-.27-1,10.07,10.07,0,0,1,.23-1.75c.16-.76.48-2.15,1-4.16a21.66,21.66,0,0,1-4.32,5.7,5.61,5.61,0,0,1-3.14,1.58,1.46,1.46,0,0,1-1.14-.58,3.56,3.56,0,0,1-.47-2.12,14.48,14.48,0,0,1,.4-3.14A23.12,23.12,0,0,1,250,12.6a5.22,5.22,0,0,1,.88-1.48,17,17,0,0,1,2.2-1.79,12,12,0,0,1,2.39-1.49,4.71,4.71,0,0,1,1.6-.25,7,7,0,0,1,1.49.19,6.49,6.49,0,0,1,1.57.56l1.32-.77.46.35A21.68,21.68,0,0,0,261,11L260,15.87a22.61,22.61,0,0,0-.57,3.15c0,.37.13.55.38.55A6.67,6.67,0,0,0,262,18.34Zm-4-8.54h0a5.24,5.24,0,0,0-2.35-.64,2.17,2.17,0,0,0-1.8.89A12.77,12.77,0,0,0,252.53,14a20.31,20.31,0,0,0-.8,4.54c0,.72.19,1.07.57,1.07s1.12-.6,2.15-1.8a16.9,16.9,0,0,0,2.54-4,13.32,13.32,0,0,0,1.18-4m16.15-7.6h0l-.09-.11.1-.77.14-.13c1.3.07,2.81.1,4.51.1.73,0,2.27,0,4.64-.1l.1.12-.13.78-.13.11c-1.06,0-1.67.08-1.82.12a1,1,0,0,0-.4.19,1.48,1.48,0,0,0-.31.49,17.67,17.67,0,0,0-.51,2.3l-1.89,10.92c-.41,2.56-.72,4.23-.91,5a12.09,12.09,0,0,1-1.6,3.86,6.28,6.28,0,0,1-2.33,2.23,6.84,6.84,0,0,1-3.09.65,5.88,5.88,0,0,1-1.27-.14l-.23-.66.12-.24a8,8,0,0,0,1,.06,3.79,3.79,0,0,0,1.92-.38,2.9,2.9,0,0,0,1-1.27,30.47,30.47,0,0,0,1.13-5.19L276,10c.66-3.92,1-6.21,1-6.87a.7.7,0,0,0-.17-.54.9.9,0,0,0-.45-.21c-.17,0-.84-.07-2-.14m9,9h0l.2,0a17.49,17.49,0,0,1,1.55-.92,1,1,0,0,1,.41-.11c.27,0,.41.2.41.61a31,31,0,0,1-1.23,5.86c-.34,1.29-.55,2.14-.64,2.56a7.38,7.38,0,0,0-.12,1.19,1.84,1.84,0,0,0,.39,1.27,1.27,1.27,0,0,0,1,.43c.95,0,2.22-.74,3.78-2.23a18.16,18.16,0,0,0,3.73-4.9l-.56,2.17a19.87,19.87,0,0,0-.73,3.66,1.38,1.38,0,0,0,.25.88.81.81,0,0,0,.68.32,3.13,3.13,0,0,0,1.38-.4A38.26,38.26,0,0,0,297.5,19l.05-.19-.31-.55h-.18l-.74.52a7.89,7.89,0,0,1-.68.47,1,1,0,0,1-.51.16c-.28,0-.41-.17-.41-.52a25.11,25.11,0,0,1,.89-4.68q.9-3.6,1.77-6.4l-.25-.26a13.06,13.06,0,0,1-3.12.57,13.17,13.17,0,0,1-.38,2.26,20.34,20.34,0,0,1-1.36,3.8A15.21,15.21,0,0,1,290.54,17a10.55,10.55,0,0,1-1.83,2,2.07,2.07,0,0,1-.93.4c-.34,0-.5-.2-.5-.6a8.07,8.07,0,0,1,.21-1.42l1.21-4.8c.31-1.2.52-2.08.63-2.62a7.24,7.24,0,0,0,.17-1.36c0-.75-.32-1.13-.94-1.13a4.68,4.68,0,0,0-2.13.76c-.88.51-2,1.26-3.34,2.24l0,.2Zm25.23-8.93h0l-.11-.13.08-.61.15-.14A27.47,27.47,0,0,0,314.46,0l.36.32-1,4.46c-.28,1.28-.83,3.94-1.63,8-.6,2.94-.94,4.78-1,5.51,0,.38-.06.65-.06.82,0,.33.09.49.29.49a6.52,6.52,0,0,0,2-1.22l.18,0,.29.55,0,.19a33.09,33.09,0,0,1-3.48,2.44,3.2,3.2,0,0,1-1.38.42.9.9,0,0,1-.78-.41,1.67,1.67,0,0,1-.28-1,14.59,14.59,0,0,1,.54-2.94q.27-1.09.72-3a19.6,19.6,0,0,1-3.89,5.25c-1.51,1.42-2.74,2.14-3.68,2.14a1.49,1.49,0,0,1-1.33-.78,4,4,0,0,1-.49-2.1,16.43,16.43,0,0,1,.46-3.71,16.3,16.3,0,0,1,1.08-3.2,6.32,6.32,0,0,1,1.07-1.69,21.73,21.73,0,0,1,2-1.4,13.12,13.12,0,0,1,2.27-1.27,4.83,4.83,0,0,1,1.62-.27,8,8,0,0,1,2,.29l.46-3a15.13,15.13,0,0,0,.2-1.86.7.7,0,0,0-.2-.56.94.94,0,0,0-.63-.19l-1.48,0m1.29,7.38h0a5.71,5.71,0,0,0-2.46-.5,2.86,2.86,0,0,0-1.63.38,5.32,5.32,0,0,0-1.17,2.12,25.38,25.38,0,0,0-1.05,3.65,16.32,16.32,0,0,0-.4,3.32c0,.68.18,1,.53,1a2.2,2.2,0,0,0,1.23-.57A11.09,11.09,0,0,0,306.71,17a15.26,15.26,0,0,0,1.84-3.1,14,14,0,0,0,1-3ZM320.51,3h0a2.18,2.18,0,0,1,.56-1.51A1.81,1.81,0,0,1,322.5.86a1.54,1.54,0,0,1,1.17.45,1.63,1.63,0,0,1,.43,1.17,2.64,2.64,0,0,1-.51,1.58,1.71,1.71,0,0,1-1.45.71,1.45,1.45,0,0,1-1.25-.51A2,2,0,0,1,320.51,3M316,11.68h0l-.29-.51,0-.18a39,39,0,0,1,3.93-2.78,4.92,4.92,0,0,1,2.2-.81.77.77,0,0,1,.61.31,1.18,1.18,0,0,1,.26.77,7.21,7.21,0,0,1-.23,1.59c-.14.64-.45,1.86-.93,3.64a39.39,39.39,0,0,0-1.25,5.34.48.48,0,0,0,.13.34.32.32,0,0,0,.27.15,7.22,7.22,0,0,0,2.3-1.32h.16l.32.57-.06.19c-.67.47-1.46,1-2.39,1.63a11.45,11.45,0,0,1-2,1.15,2.8,2.8,0,0,1-1,.24.9.9,0,0,1-.82-.42,1.88,1.88,0,0,1-.28-1.08,7.82,7.82,0,0,1,.17-1.49c.11-.55.34-1.52.71-2.89a38,38,0,0,0,1.2-5.42c0-.26-.11-.4-.33-.4a6.8,6.8,0,0,0-2.49,1.38Zm20.22,6.43h0l.32.6,0,.18a23.87,23.87,0,0,1-4,2.45,7.31,7.31,0,0,1-3,.71,3.93,3.93,0,0,1-2-.54A3.08,3.08,0,0,1,326.18,20a5.2,5.2,0,0,1-.39-2,13.36,13.36,0,0,1,.29-2.73,12.7,12.7,0,0,1,.75-2.51,6.85,6.85,0,0,1,.87-1.6,4.66,4.66,0,0,1,1-.94c.38-.28,1-.71,2-1.31.69-.45,1.17-.74,1.43-.87a4.58,4.58,0,0,1,1-.35,5.56,5.56,0,0,1,1.32-.15,8,8,0,0,1,3,.7l0,.16a13.2,13.2,0,0,0-.52,1.81,20.18,20.18,0,0,0-.41,2.09l-.16.14h-.72l-.11-.14a9.15,9.15,0,0,0,.12-1.41c0-.09,0-.23,0-.43a3.94,3.94,0,0,0-2.64-1.07,3,3,0,0,0-1.6.37,3,3,0,0,0-1,1.13,13.45,13.45,0,0,0-.87,2.73,15.51,15.51,0,0,0-.48,3.57,3.35,3.35,0,0,0,.58,2.06,1.89,1.89,0,0,0,1.62.79,5.57,5.57,0,0,0,1.88-.37,15.88,15.88,0,0,0,2.86-1.59Zm7-15.11h0a2.22,2.22,0,0,1,.56-1.51,1.82,1.82,0,0,1,1.43-.63,1.54,1.54,0,0,1,1.17.45,1.67,1.67,0,0,1,.43,1.17,2.58,2.58,0,0,1-.52,1.58,1.68,1.68,0,0,1-1.44.71,1.45,1.45,0,0,1-1.25-.51A2,2,0,0,1,343.27,3m-4.49,8.68h0l-.29-.51,0-.18a39,39,0,0,1,3.93-2.78,4.92,4.92,0,0,1,2.2-.81.77.77,0,0,1,.61.31,1.18,1.18,0,0,1,.26.77,7.75,7.75,0,0,1-.22,1.59c-.15.64-.46,1.86-.94,3.64a39.39,39.39,0,0,0-1.25,5.34.52.52,0,0,0,.12.34.35.35,0,0,0,.28.15,7,7,0,0,0,2.29-1.32H346l.31.57-.06.19c-.67.47-1.46,1-2.38,1.63a11.81,11.81,0,0,1-2,1.15,2.8,2.8,0,0,1-1,.24.93.93,0,0,1-.83-.42,2,2,0,0,1-.27-1.08,7.82,7.82,0,0,1,.17-1.49c.11-.55.34-1.52.71-2.89a38,38,0,0,0,1.2-5.42c0-.26-.11-.4-.33-.4A6.88,6.88,0,0,0,339,11.69Zm23.53,6.66h0l.32.56-.06.19A40.83,40.83,0,0,1,359,21.52a3.54,3.54,0,0,1-1.6.53.84.84,0,0,1-.73-.39,1.71,1.71,0,0,1-.26-1,9.17,9.17,0,0,1,.23-1.75c.15-.76.48-2.15,1-4.16a21.87,21.87,0,0,1-4.33,5.7,5.59,5.59,0,0,1-3.13,1.58,1.43,1.43,0,0,1-1.14-.58,3.48,3.48,0,0,1-.48-2.12,15.13,15.13,0,0,1,.4-3.14,25.45,25.45,0,0,1,1.13-3.62,5.73,5.73,0,0,1,.88-1.48,17,17,0,0,1,2.2-1.79,12.35,12.35,0,0,1,2.39-1.49,4.75,4.75,0,0,1,1.6-.25,6.81,6.81,0,0,1,1.49.19,6.49,6.49,0,0,1,1.57.56l1.32-.77.47.35a20.4,20.4,0,0,0-.87,3.11l-1.06,4.84a23.56,23.56,0,0,0-.56,3.15c0,.37.13.55.38.55a6.67,6.67,0,0,0,2.24-1.23Zm-4-8.54h0a5.24,5.24,0,0,0-2.35-.64,2.18,2.18,0,0,0-1.8.89A13,13,0,0,0,352.65,14a20.31,20.31,0,0,0-.8,4.54c0,.72.19,1.07.57,1.07s1.12-.6,2.15-1.8a16.59,16.59,0,0,0,2.54-4,12.77,12.77,0,0,0,1.18-4m13.65,8.43h0l.33.56-.06.18a37.63,37.63,0,0,1-4,2.64,3.52,3.52,0,0,1-1.38.4.92.92,0,0,1-.88-.5,2.43,2.43,0,0,1-.26-1.14,31.55,31.55,0,0,1,.86-5.22l2-9.09c.12-.49.23-1.08.35-1.78A11.6,11.6,0,0,0,369.05,3a.72.72,0,0,0-.18-.51.93.93,0,0,0-.67-.21l-1.45,0-.12-.13.09-.61.14-.14A27.14,27.14,0,0,0,372.69,0l.35.32Q371.83,5.39,370.65,11l-1.37,6.48a7.3,7.3,0,0,0-.18,1.4c0,.41.12.62.38.62a6,6,0,0,0,2.3-1.27ZM365.8,49.1l.32.55-.05.19a38,38,0,0,1-4,2.64,3.56,3.56,0,0,1-1.39.4.91.91,0,0,1-.87-.5,2.45,2.45,0,0,1-.25-1.14A31,31,0,0,1,360.4,46l2-9.09c.12-.49.24-1.09.35-1.79a12.4,12.4,0,0,0,.19-1.31.73.73,0,0,0-.19-.51.92.92,0,0,0-.67-.21l-1.44,0L360.5,33l.09-.62.14-.13a27.57,27.57,0,0,0,5.81-1.34l.35.32q-1.22,5.06-2.38,10.67l-1.37,6.48a7.21,7.21,0,0,0-.18,1.4c0,.41.13.61.38.61a5.81,5.81,0,0,0,2.3-1.27Zm16.37.11h0l.31.55-.06.19a39.22,39.22,0,0,1-3.54,2.43,3.49,3.49,0,0,1-1.6.54.86.86,0,0,1-.73-.39,1.73,1.73,0,0,1-.26-1,9.85,9.85,0,0,1,.23-1.75c.15-.76.48-2.15,1-4.17a21.54,21.54,0,0,1-4.31,5.71,5.54,5.54,0,0,1-3.12,1.58,1.41,1.41,0,0,1-1.13-.59,3.46,3.46,0,0,1-.48-2.12,15,15,0,0,1,.4-3.13A23.87,23.87,0,0,1,370,43.47a5.09,5.09,0,0,1,.88-1.48,16,16,0,0,1,2.19-1.79,11.32,11.32,0,0,1,2.38-1.49,4.42,4.42,0,0,1,1.59-.26,6.81,6.81,0,0,1,1.49.19,6.43,6.43,0,0,1,1.56.57l1.32-.77.46.34A22.31,22.31,0,0,0,381,41.9l-1.06,4.83a23.56,23.56,0,0,0-.56,3.15c0,.38.13.56.38.56A6.77,6.77,0,0,0,382,49.21Zm-4-8.54h0a5.22,5.22,0,0,0-2.34-.65,2.18,2.18,0,0,0-1.8.89,12.93,12.93,0,0,0-1.48,4,20.25,20.25,0,0,0-.8,4.53c0,.73.19,1.08.57,1.08s1.12-.6,2.14-1.8a16.81,16.81,0,0,0,2.53-4,13.27,13.27,0,0,0,1.18-4m7.74-.26h0l-.42-.49a14.33,14.33,0,0,0,1.61-3.42,15.67,15.67,0,0,0,1-3.76,24.55,24.55,0,0,0,3.54-.93l.41.48a38.38,38.38,0,0,1-4.49,7.15Zm6.42,0h0l1.63-1a36.81,36.81,0,0,0,4.51-7.15l-.43-.48c-.3.1-.85.26-1.67.48s-1.26.34-1.34.37l-.52.08a16.21,16.21,0,0,1-1,3.79,14.45,14.45,0,0,1-1.6,3.39Zm-288.13-8.6.43.49A14,14,0,0,0,103,35.69a17.15,17.15,0,0,0-1,3.79l-.47.07-1.33.37c-.82.22-1.39.39-1.72.49l-.42-.47a36.76,36.76,0,0,1,4.5-7.15Zm-6.43,0h0l-1.63,1a37.92,37.92,0,0,0-4.48,7.15l.41.47c.34-.1.92-.27,1.74-.49l1.32-.37.47-.07a16.89,16.89,0,0,1,1-3.77,13.71,13.71,0,0,1,1.6-3.41Zm23.62,16.46h0l-3.82-6.5a8.25,8.25,0,0,0,4.62-2.17,4.89,4.89,0,0,0,1.36-3.37,4.36,4.36,0,0,0-1.1-2.9Q121.32,32,117.64,32l-5.63.12c-1.8,0-3.3,0-4.51-.09l-.14.12-.11.75.11.13,1.28.09a3.06,3.06,0,0,1,1,.17c.16.09.24.29.24.61a44.47,44.47,0,0,1-.73,5.25l-1.32,7.59c-.23,1.37-.45,2.45-.64,3.23s-.43,1.2-.7,1.23a9.22,9.22,0,0,1-1.25.11l-.68.06-.15.12-.08.73.11.08c1.44-.05,2.93-.08,4.48-.08s3.12,0,4.7.08l.12-.11.09-.7-.09-.12-1.49-.09a1.86,1.86,0,0,1-1-.24.76.76,0,0,1-.21-.58v-.32q0-.69.85-5.58l1.9-11a9,9,0,0,1,2.3-.22c2.35,0,3.53,1,3.53,3.1a4.53,4.53,0,0,1-1.42,3.61,5.72,5.72,0,0,1-3.92,1.26q-.44,0-.84,0l-.12.47q2.07,3.09,6,10.57c.93-.05,1.84-.08,2.74-.08s1.72,0,2.42.08l.15-.11.06-.7-.12-.12a3.74,3.74,0,0,1-1.2-.21,2,2,0,0,1-.58-.57c-.21-.29-.69-1.08-1.43-2.36m5.48,0h0a16.39,16.39,0,0,1,.44-3.34,8.16,8.16,0,0,1,1.55-3.36,9.07,9.07,0,0,1,2.94-2.32,8.21,8.21,0,0,1,3.82-1,4.73,4.73,0,0,1,3.3,1.16,4.53,4.53,0,0,1,1.27,3.48,12.57,12.57,0,0,1-.79,4.3,6.81,6.81,0,0,1-2.09,3.21,16.22,16.22,0,0,1-2.74,1.74,7.13,7.13,0,0,1-3.25.73,4.73,4.73,0,0,1-2.72-.68,3.62,3.62,0,0,1-1.35-1.73,6.4,6.4,0,0,1-.38-2.22m3.36-.11h0a3.93,3.93,0,0,0,.66,2.53,2.32,2.32,0,0,0,1.88.79,2.54,2.54,0,0,0,1.51-.48,4.14,4.14,0,0,0,1.22-1.69,13.1,13.1,0,0,0,.91-3,17.12,17.12,0,0,0,.35-3.31,3.7,3.7,0,0,0-.72-2.61,2.39,2.39,0,0,0-1.77-.75,2.64,2.64,0,0,0-1.94.85,7.51,7.51,0,0,0-1.46,3.29,17.57,17.57,0,0,0-.64,4.42m21.34-15h0l-.12-.13.09-.62.15-.13a28.06,28.06,0,0,0,5.8-1.34l.35.32-1,4.46q-.42,1.92-1.63,8-.88,4.42-1,5.52c0,.38-.07.64-.07.82s.1.49.3.49a6.53,6.53,0,0,0,2-1.22h.18l.29.56,0,.18a33.57,33.57,0,0,1-3.47,2.45,3.2,3.2,0,0,1-1.38.42.87.87,0,0,1-.77-.42,1.61,1.61,0,0,1-.28-.95,14.47,14.47,0,0,1,.54-2.94c.18-.73.42-1.74.71-3a19.37,19.37,0,0,1-3.88,5.25c-1.5,1.42-2.72,2.14-3.66,2.14a1.5,1.5,0,0,1-1.33-.78,4,4,0,0,1-.48-2.1,17.5,17.5,0,0,1,1.53-6.92,6,6,0,0,1,1.07-1.68,18.14,18.14,0,0,1,2-1.4,13.12,13.12,0,0,1,2.26-1.27,4.6,4.6,0,0,1,1.62-.28,8,8,0,0,1,1.95.3l.46-3a15.16,15.16,0,0,0,.2-1.88.71.71,0,0,0-.2-.55,1,1,0,0,0-.63-.19l-1.47,0m1.28,7.38h0a5.64,5.64,0,0,0-2.45-.51,2.8,2.8,0,0,0-1.62.38,5.2,5.2,0,0,0-1.17,2.12,25.89,25.89,0,0,0-1,3.66,17.06,17.06,0,0,0-.4,3.32c0,.68.18,1,.53,1a2.26,2.26,0,0,0,1.23-.58,11.32,11.32,0,0,0,1.85-2,16.5,16.5,0,0,0,1.83-3.1,14.74,14.74,0,0,0,1-3ZM159.6,52.8h0l-.3-.36a65.06,65.06,0,0,0,1.64-6.62,25.65,25.65,0,0,0,.51-3.94c0-.48-.12-.72-.34-.72a5.49,5.49,0,0,0-1.93,1.15H159l-.27-.48v-.2a32.67,32.67,0,0,1,3.6-2.71,3.82,3.82,0,0,1,1.64-.66.72.72,0,0,1,.63.32,1.39,1.39,0,0,1,.21.77,5.86,5.86,0,0,1-.11,1c-.08.38-.44,2-1.09,4.71h.2c.45-1.05.92-2,1.43-3a14.85,14.85,0,0,1,1.48-2.3A4.51,4.51,0,0,1,168,38.65a2.46,2.46,0,0,1,1.16-.29,2.65,2.65,0,0,1,.74.11l.1.13a11.62,11.62,0,0,0-.4,1.91,13.39,13.39,0,0,0-.19,2l-.32.22a2.18,2.18,0,0,0-1.5-.62,2.11,2.11,0,0,0-1.32.48,5.89,5.89,0,0,0-1.38,1.93A17.88,17.88,0,0,0,163.54,48a28.12,28.12,0,0,0-.82,4.2c-.49.09-1,.18-1.61.26a6.84,6.84,0,0,0-1.51.36m15.28-18.93h0a2.16,2.16,0,0,1,.56-1.51,1.79,1.79,0,0,1,1.42-.63,1.55,1.55,0,0,1,1.17.45,1.65,1.65,0,0,1,.43,1.17,2.6,2.6,0,0,1-.52,1.58,1.67,1.67,0,0,1-1.44.7,1.43,1.43,0,0,1-1.24-.5,2,2,0,0,1-.38-1.26m-4.48,8.67h0l-.28-.5,0-.18a38.59,38.59,0,0,1,3.92-2.78,4.78,4.78,0,0,1,2.19-.82.8.8,0,0,1,.61.31,1.2,1.2,0,0,1,.26.78,7.84,7.84,0,0,1-.22,1.59c-.15.64-.46,1.85-.94,3.64a40.31,40.31,0,0,0-1.24,5.33.55.55,0,0,0,.12.35.36.36,0,0,0,.28.15,7.14,7.14,0,0,0,2.28-1.33l.17,0,.32.57-.06.18c-.66.48-1.46,1-2.38,1.64a12.19,12.19,0,0,1-2,1.15,3,3,0,0,1-1,.24.92.92,0,0,1-.83-.42,2,2,0,0,1-.27-1.08,7,7,0,0,1,.17-1.49c.1-.56.34-1.53.7-2.9a37.72,37.72,0,0,0,1.2-5.41c0-.26-.11-.4-.33-.4a6.87,6.87,0,0,0-2.48,1.38Zm12.75,9.39h0l-.88.3a8.46,8.46,0,0,0-3.64,2.05,3.62,3.62,0,0,0-1.09,2.44,3.05,3.05,0,0,0,.69,1.91A4.32,4.32,0,0,0,180.34,60a10.87,10.87,0,0,0,3.28.46,9.61,9.61,0,0,0,5.23-1.36,4.09,4.09,0,0,0,2.17-3.6,3,3,0,0,0-.69-2,15.17,15.17,0,0,0-2.76-2.29,9.22,9.22,0,0,1-1.71-1.34,1.1,1.1,0,0,1-.26-.63.84.84,0,0,1,.24-.5,2,2,0,0,1,.62-.5c.26-.13.65-.31,1.18-.52a13.88,13.88,0,0,0,1.87-.85,3.72,3.72,0,0,0,1.17-1,6.45,6.45,0,0,0,.85-1.62,5.77,5.77,0,0,0,.36-2,4.07,4.07,0,0,0-.33-1.66l.49,0,.94,0a6.75,6.75,0,0,1,1.1.11l.33-1.51-.16-.23-.81,0-1.26.05c-.28,0-.68,0-1.23,0s-.84-.06-.87-.07l-.42-.16a7.36,7.36,0,0,0-.71-.27,4.28,4.28,0,0,0-.65-.12,7,7,0,0,0-.92-.07,4.76,4.76,0,0,0-1.39.26c-.53.17-1.14.41-1.83.71a8.48,8.48,0,0,0-1.53.81,4.45,4.45,0,0,0-1,1.06,5.68,5.68,0,0,0-.77,1.56,6,6,0,0,0-.28,1.84,3.26,3.26,0,0,0,1.15,2.79,4.56,4.56,0,0,0,2.81.87h.54a23.54,23.54,0,0,1-2.34,1.53.81.81,0,0,0-.22.17.72.72,0,0,0-.1.24,1.18,1.18,0,0,0-.06.36,2,2,0,0,0,.77,1.45m.47-7.44h0a7.3,7.3,0,0,1,.78-3.39,2.41,2.41,0,0,1,2.2-1.51,2.17,2.17,0,0,1,1.53.59,2.7,2.7,0,0,1,.62,2,8.54,8.54,0,0,1-.34,2.37,4.5,4.5,0,0,1-1,1.9,2.16,2.16,0,0,1-1.65.7,2.07,2.07,0,0,1-1.54-.62,2.86,2.86,0,0,1-.61-2.07m.15,8h0a24.26,24.26,0,0,1,3.72,2.76,2.1,2.1,0,0,1,.51,1.3,2.48,2.48,0,0,1-1,2,4.3,4.3,0,0,1-2.78.82,5.39,5.39,0,0,1-2.08-.38,3.33,3.33,0,0,1-1.46-1,2.58,2.58,0,0,1-.51-1.63,3,3,0,0,1,.16-1,2.88,2.88,0,0,1,.47-.88,3.37,3.37,0,0,1,.71-.7,7.27,7.27,0,0,1,1-.63Zm11.28-4.24h0a16.39,16.39,0,0,1,.44-3.34A8.16,8.16,0,0,1,197,41.55,9.07,9.07,0,0,1,200,39.23a8.21,8.21,0,0,1,3.82-1,4.69,4.69,0,0,1,3.29,1.16,4.49,4.49,0,0,1,1.27,3.48,12.55,12.55,0,0,1-.78,4.3,6.88,6.88,0,0,1-2.09,3.21,16.22,16.22,0,0,1-2.74,1.74,7.13,7.13,0,0,1-3.25.73,4.73,4.73,0,0,1-2.72-.68,3.62,3.62,0,0,1-1.35-1.73,6.4,6.4,0,0,1-.38-2.22m3.36-.11h0a3.93,3.93,0,0,0,.66,2.53,2.31,2.31,0,0,0,1.88.79,2.54,2.54,0,0,0,1.51-.48,4.14,4.14,0,0,0,1.22-1.69,13.1,13.1,0,0,0,.91-3,17.12,17.12,0,0,0,.35-3.31,3.7,3.7,0,0,0-.72-2.61,2.39,2.39,0,0,0-1.78-.75,2.64,2.64,0,0,0-1.93.85,7.51,7.51,0,0,0-1.46,3.29,17.57,17.57,0,0,0-.64,4.42m19.87,4.1h0l.1-.76.14-.13A6.26,6.26,0,0,0,219.8,51a1.33,1.33,0,0,0,.2-.14.8.8,0,0,0,.13-.25,18.56,18.56,0,0,0,.57-2.7l1.82-10.67a31.41,31.41,0,0,0,.41-3.28.64.64,0,0,0-.19-.52.86.86,0,0,0-.44-.21l-2-.13-.09-.11.1-.77.15-.14c1.34.07,2.84.11,4.5.11.45,0,2,0,4.61-.11l.08.12-.11.79-.13.11a16.48,16.48,0,0,0-1.83.12.8.8,0,0,0-.42.23,2,2,0,0,0-.37.85c-.13.45-.35,1.59-.67,3.41l-1.8,10.24a28.88,28.88,0,0,0-.44,2.93h2.36c1.2,0,2.25,0,3.14-.08a9.71,9.71,0,0,0,1.82-.23,1.48,1.48,0,0,0,.71-.42,5.65,5.65,0,0,0,.55-1.54c.05-.21.18-.62.38-1.23l.11-.11h.84l.1.11q0,.34-.27,1.41c-.13.58-.25,1.19-.36,1.84s-.25,1.32-.33,1.63l-.15.13c-1.6,0-2.77,0-3.5,0l-5.76-.06c-2.2,0-3.92,0-5.16.08Zm31.58-3h0l.31.55-.06.19a37.51,37.51,0,0,1-3.55,2.43,3.42,3.42,0,0,1-1.6.54.86.86,0,0,1-.72-.39,1.73,1.73,0,0,1-.26-1,9,9,0,0,1,.23-1.75c.15-.76.47-2.15,1-4.17a21.54,21.54,0,0,1-4.31,5.71,5.54,5.54,0,0,1-3.12,1.58,1.43,1.43,0,0,1-1.14-.59,3.54,3.54,0,0,1-.47-2.12,14.4,14.4,0,0,1,.4-3.13,22.79,22.79,0,0,1,1.13-3.62,4.86,4.86,0,0,1,.87-1.48,17.38,17.38,0,0,1,2.19-1.79,11.57,11.57,0,0,1,2.39-1.49,4.42,4.42,0,0,1,1.59-.26,6.73,6.73,0,0,1,1.48.19,6.35,6.35,0,0,1,1.57.57l1.32-.77.46.34a22.31,22.31,0,0,0-.86,3.12l-1.06,4.83a23.56,23.56,0,0,0-.56,3.15c0,.38.13.56.38.56a6.77,6.77,0,0,0,2.24-1.23Zm-4-8.54h0a5.26,5.26,0,0,0-2.34-.65,2.18,2.18,0,0,0-1.8.89,12.67,12.67,0,0,0-1.48,4,20.25,20.25,0,0,0-.8,4.53c0,.73.19,1.08.57,1.08s1.11-.6,2.14-1.8a16.81,16.81,0,0,0,2.53-4,13.27,13.27,0,0,0,1.18-4m7.09,12.13h0l-.3-.36a64.72,64.72,0,0,0,1.63-6.62,25.65,25.65,0,0,0,.51-3.94q0-.72-.33-.72a5.49,5.49,0,0,0-1.94,1.15h-.22l-.27-.48,0-.2a31.88,31.88,0,0,1,3.59-2.71,3.87,3.87,0,0,1,1.64-.66.71.71,0,0,1,.63.32,1.39,1.39,0,0,1,.21.77,5.86,5.86,0,0,1-.11,1c-.08.38-.44,2-1.08,4.71h.2a31.45,31.45,0,0,1,1.42-3,14.83,14.83,0,0,1,1.49-2.3,4.5,4.5,0,0,1,1.26-1.18,2.49,2.49,0,0,1,1.16-.29,2.65,2.65,0,0,1,.74.11l.1.13a12.78,12.78,0,0,0-.4,1.91,14.94,14.94,0,0,0-.19,2l-.32.22a2.18,2.18,0,0,0-1.5-.62,2.11,2.11,0,0,0-1.32.48,5.9,5.9,0,0,0-1.37,1.93A17.24,17.24,0,0,0,256.87,48a28.11,28.11,0,0,0-.81,4.2c-.49.09-1,.18-1.62.26a6.88,6.88,0,0,0-1.5.36m24.53-3.59h0l.31.55-.06.19a39.22,39.22,0,0,1-3.54,2.43,3.49,3.49,0,0,1-1.6.54.83.83,0,0,1-.72-.39,1.66,1.66,0,0,1-.27-1,9.85,9.85,0,0,1,.23-1.75c.15-.76.48-2.15,1-4.17a21.77,21.77,0,0,1-4.3,5.71,5.59,5.59,0,0,1-3.13,1.58,1.41,1.41,0,0,1-1.13-.59,3.46,3.46,0,0,1-.48-2.12,15,15,0,0,1,.4-3.13,22.79,22.79,0,0,1,1.13-3.62,5.07,5.07,0,0,1,.87-1.48,17.38,17.38,0,0,1,2.19-1.79,11.57,11.57,0,0,1,2.39-1.49,4.42,4.42,0,0,1,1.59-.26,6.81,6.81,0,0,1,1.49.19,6.28,6.28,0,0,1,1.56.57l1.32-.77.47.34a20.63,20.63,0,0,0-.87,3.12l-1.06,4.83a23.56,23.56,0,0,0-.56,3.15c0,.38.13.56.38.56a6.67,6.67,0,0,0,2.24-1.23Zm-4-8.54h0a5.22,5.22,0,0,0-2.34-.65,2.18,2.18,0,0,0-1.8.89,12.93,12.93,0,0,0-1.48,4,20.25,20.25,0,0,0-.8,4.53c0,.73.19,1.08.57,1.08s1.12-.6,2.14-1.8a16.81,16.81,0,0,0,2.53-4,12.71,12.71,0,0,0,1.18-4m13.38,11.67h0l-.1-.1.1-.76.14-.13.42-.11a2.27,2.27,0,0,0,1.07-.42,9.33,9.33,0,0,0,.58-2.34c.27-1.41.72-4,1.38-7.86s1-6.06,1-6.69a.67.67,0,0,0-.17-.52.86.86,0,0,0-.44-.21l-2-.13-.1-.11.11-.79.13-.12c1.28.07,2.75.11,4.42.11l1.87-.06c1.14,0,2.26-.06,3.39-.06a14.15,14.15,0,0,1,2.38.18,5,5,0,0,1,1.89.72,3.43,3.43,0,0,1,1.25,1.35,3.83,3.83,0,0,1,.42,1.81,4.58,4.58,0,0,1-.3,1.64,5,5,0,0,1-.88,1.47A5.76,5.76,0,0,1,302,40.36a6.82,6.82,0,0,1-1.29.64c-.32.1-1,.3-2.11.58a6.71,6.71,0,0,1,4,1.43,4,4,0,0,1,1.15,3,5.6,5.6,0,0,1-2.39,4.58,9.16,9.16,0,0,1-5.84,1.87c-.65,0-1.42,0-2.32-.07-1.07-.07-1.88-.1-2.45-.1-1.42,0-2.73,0-3.94.08m7.06-11.13h0q.47,0,1.08,0a9.91,9.91,0,0,0,2.67-.27,4.36,4.36,0,0,0,1.57-.86,4.17,4.17,0,0,0,1.07-1.63,5.85,5.85,0,0,0,.41-2.14,2.79,2.79,0,0,0-.86-2.07,4.39,4.39,0,0,0-3-.83,14,14,0,0,0-1.55.09c0,.3-.24,1.42-.61,3.37Zm-1.56,9.56h0a24,24,0,0,0,3.3.36,3.45,3.45,0,0,0,3.21-1.62,6.54,6.54,0,0,0,1-3.47,4.23,4.23,0,0,0-.46-2A2.54,2.54,0,0,0,298,42.8a8.46,8.46,0,0,0-2.83-.35c-.51,0-1,0-1.54,0l-.54,3.32c-.32,1.9-.58,3.56-.77,5m14.74-2.52h0a16.39,16.39,0,0,1,.44-3.34,8.16,8.16,0,0,1,1.55-3.36A9.07,9.07,0,0,1,312,39.23a8.21,8.21,0,0,1,3.82-1,4.69,4.69,0,0,1,3.29,1.16,4.49,4.49,0,0,1,1.28,3.48,12.57,12.57,0,0,1-.79,4.3,6.88,6.88,0,0,1-2.09,3.21,16.22,16.22,0,0,1-2.74,1.74,7.13,7.13,0,0,1-3.25.73,4.73,4.73,0,0,1-2.72-.68,3.62,3.62,0,0,1-1.35-1.73,6.4,6.4,0,0,1-.38-2.22m3.36-.11h0a3.93,3.93,0,0,0,.66,2.53,2.32,2.32,0,0,0,1.88.79,2.54,2.54,0,0,0,1.51-.48,4.14,4.14,0,0,0,1.22-1.69,13.1,13.1,0,0,0,.91-3,17.12,17.12,0,0,0,.35-3.31,3.7,3.7,0,0,0-.72-2.61,2.39,2.39,0,0,0-1.77-.75,2.64,2.64,0,0,0-1.94.85,7.51,7.51,0,0,0-1.46,3.29,18,18,0,0,0-.64,4.42m12.69,4.64h0l-.36-.35c.29-.75.67-2,1.14-3.73s.8-3.26,1-4.54a19.4,19.4,0,0,0,.32-2.46c0-.33-.1-.49-.32-.49a5.69,5.69,0,0,0-2.06,1.2h-.2l-.28-.5v-.19c.5-.42,1.07-.88,1.73-1.39s1.25-.94,1.78-1.28a7,7,0,0,1,1.2-.64,2.34,2.34,0,0,1,.73-.14q.78,0,.78.93a10.87,10.87,0,0,1-.25,2q-.25,1.27-1.08,4.35a18.09,18.09,0,0,1,4.06-5.11c1.64-1.41,3-2.11,4-2.11.81,0,1.21.45,1.21,1.36a9.83,9.83,0,0,1-.33,2.12c-.22.93-.57,2.27-1.05,4.06-.33,1.18-.55,2.1-.67,2.77a9,9,0,0,0-.17,1.28c0,.35.11.53.33.53a4.85,4.85,0,0,0,2.1-1.18l.17,0,.32.56,0,.18a27.34,27.34,0,0,1-3.5,2.37,4.24,4.24,0,0,1-1.81.53.81.81,0,0,1-.81-.47,2.34,2.34,0,0,1-.2-1,22.91,22.91,0,0,1,1-4.72,24.47,24.47,0,0,0,1.1-4.94c0-.39-.18-.58-.56-.58a1.6,1.6,0,0,0-.7.23,5.7,5.7,0,0,0-1.31,1.12,12.1,12.1,0,0,0-1.59,2A16,16,0,0,0,327.55,47a18.23,18.23,0,0,0-.89,2.82,17.54,17.54,0,0,0-.44,2.4,14.89,14.89,0,0,0-3.09.54m20.6-18.91h0a2.21,2.21,0,0,1,.56-1.51,1.81,1.81,0,0,1,1.43-.63,1.53,1.53,0,0,1,1.16.45,1.65,1.65,0,0,1,.43,1.17,2.6,2.6,0,0,1-.52,1.58,1.67,1.67,0,0,1-1.44.7,1.44,1.44,0,0,1-1.24-.5,2,2,0,0,1-.38-1.26m-4.48,8.67h0L339,42l0-.18a37.6,37.6,0,0,1,3.91-2.78,4.85,4.85,0,0,1,2.19-.82.82.82,0,0,1,.62.31,1.2,1.2,0,0,1,.25.78,7.84,7.84,0,0,1-.22,1.59c-.15.64-.46,1.85-.94,3.64a40.31,40.31,0,0,0-1.24,5.33.55.55,0,0,0,.12.35.38.38,0,0,0,.28.15,7.14,7.14,0,0,0,2.28-1.33l.18,0,.31.57-.06.18c-.66.48-1.46,1-2.37,1.64a13.11,13.11,0,0,1-2,1.15,3.07,3.07,0,0,1-1,.24.93.93,0,0,1-.83-.42,2,2,0,0,1-.26-1.08,7.66,7.66,0,0,1,.16-1.49c.11-.56.34-1.53.71-2.9a37,37,0,0,0,1.19-5.41c0-.26-.11-.4-.33-.4a7,7,0,0,0-2.48,1.38Zm16.82,6.56h0l.32.55-.05.19a38,38,0,0,1-4,2.64,3.52,3.52,0,0,1-1.38.4.9.9,0,0,1-.87-.5,2.46,2.46,0,0,1-.26-1.14,32.12,32.12,0,0,1,.85-5.22l2-9.09c.11-.49.23-1.09.35-1.79s.18-1.14.18-1.31a.77.77,0,0,0-.18-.51.93.93,0,0,0-.67-.21l-1.45,0-.11-.13.08-.62.14-.13a27.42,27.42,0,0,0,5.81-1.34l.36.32q-1.21,5.06-2.39,10.67l-1.36,6.48a6.62,6.62,0,0,0-.19,1.4c0,.41.13.61.38.61a5.74,5.74,0,0,0,2.3-1.27Z"/><g class="cls-5"><g class="cls-6"><rect class="cls-7" x="392.61" y="41.47" width="18.39" height="10.82"/></g></g><g class="cls-8"><rect class="cls-9" y="41.47" width="77.87" height="10.82"/></g><rect class="cls-3" y="41.47" width="77.87" height="10.82"/></g></g></svg>